<svg xmlns="http://www.w3.org/2000/svg" width="1097" height="213" viewBox="0 0 1097 213" fill="none"><g clip-path="url(#clip0)"><path d="M312.63 96.69H328.23L343.18 140.5L355.79 96.69H371.13L350.85 160H335.77L320.04 114.5L304.7 160H289.23L268.69 96.69H284.81L297.68 140.5L312.63 96.69ZM392.935 121.39H424.005C423.832 117.403 422.402 114.067 419.715 111.38C417.115 108.693 413.345 107.35 408.405 107.35C403.899 107.35 400.259 108.78 397.485 111.64C394.712 114.413 393.195 117.663 392.935 121.39ZM425.695 137.9L438.435 141.93C436.615 147.737 433.192 152.547 428.165 156.36C423.225 160.087 417.115 161.95 409.835 161.95C400.822 161.95 393.152 158.873 386.825 152.72C380.585 146.567 377.465 138.333 377.465 128.02C377.465 118.313 380.499 110.34 386.565 104.1C392.719 97.86 399.955 94.74 408.275 94.74C417.982 94.74 425.565 97.73 431.025 103.71C436.485 109.603 439.215 117.577 439.215 127.63C439.215 130.317 439.085 131.92 438.825 132.44H392.545C392.719 137.207 394.452 141.15 397.745 144.27C401.125 147.39 405.155 148.95 409.835 148.95C417.982 148.95 423.269 145.267 425.695 137.9ZM469.616 160H454.926V65.88H469.746V104.49C471.306 101.803 473.863 99.55 477.416 97.73C480.97 95.91 485.043 95 489.636 95C498.823 95 505.973 98.12 511.086 104.36C516.286 110.513 518.886 118.4 518.886 128.02C518.886 137.813 516.156 145.873 510.696 152.2C505.323 158.44 498.13 161.56 489.116 161.56C480.103 161.56 473.603 158.223 469.616 151.55V160ZM498.866 142.84C502.073 139.2 503.676 134.303 503.676 128.15C503.676 121.997 502.116 117.187 498.996 113.72C495.876 110.167 491.76 108.39 486.646 108.39C481.706 108.39 477.633 110.167 474.426 113.72C471.22 117.187 469.616 121.997 469.616 128.15C469.616 134.217 471.22 139.07 474.426 142.71C477.633 146.35 481.706 148.17 486.646 148.17C491.673 148.17 495.746 146.393 498.866 142.84ZM549.373 160H534.683V65.88H549.503V104.49C551.063 101.803 553.62 99.55 557.173 97.73C560.727 95.91 564.8 95 569.393 95C578.58 95 585.73 98.12 590.843 104.36C596.043 110.513 598.643 118.4 598.643 128.02C598.643 137.813 595.913 145.873 590.453 152.2C585.08 158.44 577.887 161.56 568.873 161.56C559.86 161.56 553.36 158.223 549.373 151.55V160ZM578.623 142.84C581.83 139.2 583.433 134.303 583.433 128.15C583.433 121.997 581.873 117.187 578.753 113.72C575.633 110.167 571.517 108.39 566.403 108.39C561.463 108.39 557.39 110.167 554.183 113.72C550.977 117.187 549.373 121.997 549.373 128.15C549.373 134.217 550.977 139.07 554.183 142.71C557.39 146.35 561.463 148.17 566.403 148.17C571.43 148.17 575.503 146.393 578.623 142.84ZM624.97 121.39H656.04C655.867 117.403 654.437 114.067 651.75 111.38C649.15 108.693 645.38 107.35 640.44 107.35C635.934 107.35 632.294 108.78 629.52 111.64C626.747 114.413 625.23 117.663 624.97 121.39ZM657.73 137.9L670.47 141.93C668.65 147.737 665.227 152.547 660.2 156.36C655.26 160.087 649.15 161.95 641.87 161.95C632.857 161.95 625.187 158.873 618.86 152.72C612.62 146.567 609.5 138.333 609.5 128.02C609.5 118.313 612.534 110.34 618.6 104.1C624.754 97.86 631.99 94.74 640.31 94.74C650.017 94.74 657.6 97.73 663.06 103.71C668.52 109.603 671.25 117.577 671.25 127.63C671.25 130.317 671.12 131.92 670.86 132.44H624.58C624.754 137.207 626.487 141.15 629.78 144.27C633.16 147.39 637.19 148.95 641.87 148.95C650.017 148.95 655.304 145.267 657.73 137.9ZM697.101 128.15C697.101 134.217 698.661 139.113 701.781 142.84C704.901 146.48 709.018 148.3 714.131 148.3C719.071 148.3 723.101 146.437 726.221 142.71C729.341 138.983 730.901 134.087 730.901 128.02C730.901 122.04 729.384 117.273 726.351 113.72C723.318 110.167 719.288 108.39 714.261 108.39C709.234 108.39 705.118 110.21 701.911 113.85C698.704 117.403 697.101 122.17 697.101 128.15ZM745.461 65.88V148.43C745.461 152.677 745.678 156.533 746.111 160H731.681C731.248 157.573 731.031 154.843 731.031 151.81C729.471 154.67 727.044 157.01 723.751 158.83C720.458 160.65 716.688 161.56 712.441 161.56C703.428 161.56 696.104 158.397 690.471 152.07C684.838 145.743 682.021 137.77 682.021 128.15C682.021 118.877 684.838 111.033 690.471 104.62C696.191 98.2067 703.428 95 712.181 95C717.208 95 721.238 95.91 724.271 97.73C727.391 99.55 729.558 101.673 730.771 104.1V65.88H745.461ZM803.514 96.3V111.64C801.781 111.38 800.134 111.25 798.574 111.25C787.221 111.25 781.544 117.447 781.544 129.84V160H766.464V96.69H781.154V106.83C782.627 103.45 785.011 100.807 788.304 98.9C791.597 96.9067 795.324 95.91 799.484 95.91C800.871 95.91 802.214 96.04 803.514 96.3ZM832.353 160H817.403V96.69H832.353V160ZM817.923 81.35C816.016 79.4433 815.063 77.1467 815.063 74.46C815.063 71.7733 816.016 69.4767 817.923 67.57C819.829 65.5767 822.126 64.58 824.813 64.58C827.586 64.58 829.926 65.5333 831.833 67.44C833.739 69.3467 834.693 71.6867 834.693 74.46C834.693 77.1467 833.739 79.4433 831.833 81.35C829.926 83.2567 827.586 84.21 824.813 84.21C822.126 84.21 819.829 83.2567 817.923 81.35ZM853.107 165.2V96.69H868.187V166.37C868.187 172.35 866.497 177.203 863.117 180.93C859.737 184.743 855.144 186.65 849.337 186.65C845.524 186.65 842.664 186.26 840.757 185.48V173C842.057 173.26 843.574 173.39 845.307 173.39C850.507 173.39 853.107 170.66 853.107 165.2ZM853.627 81.22C851.72 79.3133 850.767 77.0167 850.767 74.33C850.767 71.6433 851.72 69.3467 853.627 67.44C855.534 65.4467 857.83 64.45 860.517 64.45C863.29 64.45 865.63 65.4467 867.537 67.44C869.444 69.3467 870.397 71.6433 870.397 74.33C870.397 77.0167 869.4 79.3133 867.407 81.22C865.5 83.1267 863.204 84.08 860.517 84.08C857.83 84.08 855.534 83.1267 853.627 81.22ZM917.272 78.75C914.759 78.75 912.549 79.4867 910.642 80.96C908.822 82.3467 907.912 84.8167 907.912 88.37V96.69H922.602V109.82H907.912V160H892.702V109.82H881.652V96.69H892.702V87.98C892.702 80.96 894.739 75.4133 898.812 71.34C902.886 67.2667 908.216 65.23 914.802 65.23C918.356 65.23 920.999 65.6633 922.732 66.53V79.4C921.259 78.9667 919.439 78.75 917.272 78.75ZM930.528 157.79C928.535 155.71 927.538 153.197 927.538 150.25C927.538 147.303 928.535 144.79 930.528 142.71C932.608 140.63 935.121 139.59 938.068 139.59C941.015 139.59 943.528 140.63 945.608 142.71C947.688 144.79 948.728 147.303 948.728 150.25C948.728 153.197 947.688 155.71 945.608 157.79C943.528 159.783 941.015 160.78 938.068 160.78C935.121 160.78 932.608 159.783 930.528 157.79ZM983.425 123.47V160H968.345V96.69H983.035V105.14C985.028 101.673 987.672 99.1167 990.965 97.47C994.345 95.7367 997.942 94.87 1001.75 94.87C1009.21 94.87 1014.88 97.21 1018.78 101.89C1022.68 106.57 1024.63 112.593 1024.63 119.96V160H1009.55V122.56C1009.55 118.313 1008.51 114.933 1006.43 112.42C1004.35 109.82 1001.06 108.52 996.555 108.52C992.395 108.52 989.145 109.95 986.805 112.81C984.552 115.583 983.425 119.137 983.425 123.47ZM1059.37 160H1044.29V65.88H1059.37V160Z" fill="#263257"></path><path d="M132.747 156.604C132.747 172.275 119.98 184.967 104.216 184.967H53.6576C37.8937 184.967 25.1267 172.275 25.1267 156.604C25.1267 140.948 37.8937 128.241 53.6576 128.241H104.216C119.98 128.241 132.747 140.948 132.747 156.604Z" fill="#70AFFF"></path><path d="M196.956 181.064C210.532 173.11 215.043 155.725 207.041 142.229L181.642 100.309C173.64 86.8128 156.153 82.3288 142.577 90.2837C129.001 98.2386 124.49 115.623 132.492 129.119L157.876 171.039C165.893 184.535 183.38 189.019 196.956 181.064Z" fill="#4191F7"></path><path d="M131.848 22.9356C118.272 14.9808 100.785 19.4647 92.7827 32.9611L27.9589 142.229C19.957 155.725 24.4674 173.11 38.0436 181.064C43.0035 183.984 48.5029 185.221 53.8674 184.967H103.062C103.796 184.967 104.531 184.938 105.265 184.878C104.711 184.878 104.141 184.878 103.542 184.878C66.2448 184.878 87.0586 154.414 87.0586 154.414L86.9687 154.429L141.933 61.7863C149.934 48.275 145.409 30.8905 131.848 22.9356Z" fill="#4191F7"></path></g><defs><clipPath id="clip0"><rect width="1097" height="213" fill="white"></rect></clipPath></defs></svg>